<svg xmlns="http://www.w3.org/2000/svg" viewBox="0 0 484.12 446.08"><defs><style>.cls-1{fill:none;stroke:#000;stroke-miterlimit:10;stroke-width:6px;}.cls-2,.cls-4,.cls-5,.cls-6,.cls-8{font-size:85.36px;font-family:OpenSans-Bold, Open Sans;font-weight:700;}.cls-2{letter-spacing:-0.05em;}.cls-3{letter-spacing:-0.04em;}.cls-4{letter-spacing:-0.04em;}.cls-5{letter-spacing:-0.05em;}.cls-6{letter-spacing:-0.05em;}.cls-7{letter-spacing:-0.03em;}.cls-8{letter-spacing:-0.06em;}</style></defs><title>gd_icons</title><g id="Layer_2" data-name="Layer 2"><g id="Layer_1-2" data-name="Layer 1"><rect class="cls-1" x="9.12" y="3" width="126" height="126"/><text class="cls-2" transform="translate(26.39 92.87)">P<tspan class="cls-3" x="49.32" y="0">s</tspan></text><rect class="cls-1" x="182.12" y="3" width="126" height="126"/><text class="cls-4" transform="translate(204.39 92.87)">A<tspan class="cls-3" x="55.32" y="0">i</tspan></text><rect class="cls-1" x="355.12" y="3" width="126" height="126"/><text class="cls-5" transform="translate(380.39 92.87)">I<tspan class="cls-3" x="23.85" y="0">d</tspan></text><rect class="cls-1" x="9.12" y="165" width="126" height="126"/><text class="cls-6" transform="translate(26.39 254.87)">B<tspan class="cls-7" x="52.73" y="0">r</tspan></text><rect class="cls-1" x="182.12" y="165" width="126" height="126"/><text class="cls-8" transform="translate(203.48 254.87)">L<tspan class="cls-3" x="43.04" y="0">r</tspan></text><path d="M478.1,250c-.2-3.43-2.08-5.82-4.84-7.61a23,23,0,0,0-12.92-3.67c-6.93.09-13.86.78-20.8,1.16-.94.05-2.26.11-2.78-.43-5.85-6.11-11.47-12.43-15.35-20a4.65,4.65,0,0,1-.07-3.27,88.08,88.08,0,0,0,4.59-25.51c0-1.18.09-2.36,0-3.52-.38-4.22-1.44-8.17-4.68-11.19-5.82-5.41-14.3-3.25-16.27,4.39a33.61,33.61,0,0,0-.8,10.21c.43,7.24,2.71,14.07,5.49,20.74a5,5,0,0,1,.24,3.27,266.7,266.7,0,0,1-15.37,35.95,5.88,5.88,0,0,1-3.36,2.95c-8,3.15-15.93,6.64-22.43,12.44a29.13,29.13,0,0,0-6.59,8.36c-2.69,5.36.34,10.63,6.2,11.92,6.05,1.34,11.1-.93,15.71-4.42,8.66-6.57,14.47-15.48,19.72-24.78a5.25,5.25,0,0,1,3.43-2.85c8.84-2.28,17.65-4.64,26.51-6.83a4.18,4.18,0,0,1,2.91.79c3.6,2.33,6.94,5.1,10.67,7.17a36.73,36.73,0,0,0,20.43,5C474.84,259.86,478.46,256.3,478.1,250ZM375.46,277a13.26,13.26,0,0,1-4.13,2.58,3.87,3.87,0,0,1-3.29-.61,3.11,3.11,0,0,1,0-3,25.34,25.34,0,0,1,5.33-5.82c4.42-3.11,9.16-5.79,13.77-8.64l.52.75C384.1,267.55,380.41,272.77,375.46,277Zm35.14-93.14a8.23,8.23,0,0,1,1-3.32,2.7,2.7,0,0,1,2-1.24,2.59,2.59,0,0,1,1.88,1.39,10.78,10.78,0,0,1,.81,3.85c.14,6.12-1.22,12-3,17.89C411.29,196.32,410,190.18,410.6,183.81Zm-1,62.77,8.14-20.07,11.58,15Zm57,3.06a4.29,4.29,0,0,1-2.16,3,10.61,10.61,0,0,1-5,.32c-5.73-.88-10.7-3.54-15.9-7.28,6.93-.63,13.19-1.58,19.44.17a4.39,4.39,0,0,1,2.07,1C465.82,247.64,466.81,248.8,466.67,249.64Z"/><path d="M0,407a28.88,28.88,0,0,1,2-5.29,13.46,13.46,0,0,1,3.54-3.6Q27.2,382,48.94,366l1.46-1.11H48.78c-7.71,0-15.41,0-23.12,0A7.5,7.5,0,0,1,18,358.78,7.35,7.35,0,0,1,21.53,351a20.43,20.43,0,0,1,5.13-1.74,12.89,12.89,0,0,1,3.05-.12l47,0h1.61a7.89,7.89,0,0,0-.69-.74L63.21,336.87c-3.22-2.58-3.11-6.13.28-8.48a9.2,9.2,0,0,1,10.44,0c14,10.71,28.06,21.33,41.87,32.27a38,38,0,0,1,14.64,26.83c1.11,11-2.15,20.8-9.27,29.22-7.8,9.22-17.89,14.37-29.8,15.87-13.27,1.67-25.4-1.36-36-9.61a39.16,39.16,0,0,1-15.12-24.24,28.11,28.11,0,0,1-.39-3.29c-.07-1.1,0-2.21,0-3.42-.27.19-.56.37-.83.59C31.44,398.79,23.85,405,16.3,411.2a13.22,13.22,0,0,1-7.67,3.41c-4.53.29-7.58-2.1-8.45-6.53,0-.2-.12-.39-.18-.59Zm84.85,5.52c7,0,12.91-1.77,18.16-5.54,13.08-9.41,13.84-27.11,1.63-37.44-11.15-9.44-28.62-9-39.3,1-9.48,8.85-10.25,22.74-1.69,32.46C69.39,409.46,76.86,412.29,84.85,412.5Z"/><path d="M69.44,384.91c.19-4.44,2.85-8.66,7.75-11.27,6.39-3.4,12.77-3,18.62,1.29,7.74,5.73,7.7,16.56.06,22.44A17.08,17.08,0,0,1,72.7,395C70.55,392.47,69.43,389.41,69.44,384.91Z"/><path d="M191.94,334.62l23.81-3.09q13.68-1.8,27.35-3.62c7.21-1,14.41-2,21.62-2.89a3.13,3.13,0,0,1,2.11.6Q277.48,334,288,342.39c5,4,10,8,15,12a2.16,2.16,0,0,1,.87,2.23c-1.4,11.48-2.71,23-4.05,34.45-1.16,9.87-2.45,19.73-3.41,29.62-.26,2.67-1.18,3.66-3.73,4.35-12.89,3.49-25.69,7.26-38.54,10.88-12.09,3.4-24.19,6.75-36.47,10.17-.79-2.27-1.57-4.53-2.37-6.78q-4.16-11.7-8.33-23.37c-2-5.56-4.26-11-6-16.66-.92-2.94-1.06-6.12-1.48-9.19-.92-6.73-1.78-13.46-2.68-20.19q-1.83-13.54-3.68-27.08C192.74,340.13,192.34,337.46,191.94,334.62Zm7.88,5.88c1.4,3.38,2.69,6.57,4.06,9.73a1.28,1.28,0,0,0,1,.43c1.7-.19,3.39-.47,5.07-.72l38.7-5.78a3.35,3.35,0,0,1,3.05.81c1.26,1.27,2.51,2.56,3.76,3.84,3.89,4,7.77,7.94,11.7,11.87a1.93,1.93,0,0,0,1.48.46c6.86-1.19,13.71-2.43,20.56-3.67,1.65-.3,3.29-.65,5.22-1-1.77-1.5-3.25-2.83-4.83-4.07-8.15-6.39-16.35-12.73-24.48-19.15a3.71,3.71,0,0,0-3.11-.86q-9.81,1.36-19.65,2.63-19.14,2.47-38.29,4.9C202.73,340.06,201.36,340.28,199.82,340.5Zm7.41,29.73c1.41,3.76,2.71,7.33,4.11,10.86.11.29.94.52,1.37.45q10.66-1.95,21.29-4a1.48,1.48,0,0,1,1.9.79c1.68,2.91,3.49,5.75,5.22,8.64a1.26,1.26,0,0,0,1.61.66c4.66-1.05,9.33-2,14-3,3.36-.72,6.71-1.46,10.14-2.21a2.5,2.5,0,0,0-.24-.6c-4.94-6.14-9.87-12.27-14.85-18.37a2,2,0,0,0-1.55-.53c-2.9.4-5.8.87-8.69,1.37-7.89,1.39-15.77,2.81-23.66,4.19C214.43,369.06,211,369.61,207.23,370.23Zm35.59,39.49a3.81,3.81,0,0,0-.14-.68c-1.67-3.32-3.32-6.64-5-9.94a1.56,1.56,0,0,0-2-.76c-4.72,1.11-9.46,2.17-14.2,3.24l-6.61,1.48L219,415.45Z"/><path d="M475.8,368.91q-6.72,8.18-13.42,16.36L421.79,434.7c-1.41,1.73-2.93,1.73-4.34,0l-45.53-55.45-8.48-10.35v-1.54l2.37-3.43c6.28-9.07,12.54-18.16,18.87-27.21a3.52,3.52,0,0,1,2.1-1.33c1.91-.31,3.85-.36,5.79-.5l20.77-1.47c2.26-.16,4.52-.45,6.77-.43s4.73.38,7.1.55c8.38.6,16.77,1.17,25.14,1.83a4.61,4.61,0,0,1,2.1,1.17,5.73,5.73,0,0,1,.94,1.34l20.41,29.48Zm-87.33,1.65,31.15,58.13c10.46-19.54,20.75-38.73,31.14-58.13Zm2.4-5.15.12.25h57.26l.29-.44a4.67,4.67,0,0,1-.92-.55Q438.31,356,429,347.29c-2.86-2.67-5.74-5.31-8.59-8-.61-.58-1.07-.59-1.65,0s-1.4,1.29-2.1,1.93L394.4,362C393.21,363.15,392.05,364.28,390.87,365.41Zm-3.49-3.7.36.17,25-23.36-.17-.29c-.39,0-.78,0-1.16,0-7,.49-14,1-21,1.48-1,.07-1.48.46-1.56,1.52-.39,5.5-.84,11-1.26,16.5C387.53,359.06,387.46,360.39,387.38,361.71Zm39.27-23.44-.16.28,25,23.35.27-.22c0-.47,0-.93,0-1.4-.11-1.45-.23-2.91-.35-4.37-.37-5-.76-9.9-1.12-14.86-.06-.84-.43-1.27-1.28-1.3s-1.46-.08-2.19-.14l-19.35-1.39A6.06,6.06,0,0,0,426.65,338.27Zm-55.4,32.27-.17.33q17.18,20.91,34.34,41.81a11.33,11.33,0,0,0-1.13-2.7Q394,390.84,383.8,371.68a2,2,0,0,0-2.06-1.25c-3.11.05-6.22,0-9.33,0A11.55,11.55,0,0,0,371.25,370.54Zm62.36,41.95.21.18q17.19-20.91,34.37-41.84l-.21-.3c-.42,0-.85-.08-1.27-.08-2.89,0-5.78.07-8.66,0a2.76,2.76,0,0,0-2.89,1.75c-5.28,10-10.64,19.93-16,29.89ZM370.3,365.68c.7.06,1.08.12,1.47.12h8.88c1.54,0,1.72-.17,1.84-1.76q.64-8.3,1.27-16.6c0-.23,0-.47-.05-.7l-.23-.1Zm85.35-19.18a3,3,0,0,0-.19.48q.68,8.81,1.34,17.59c.07.92.56,1.25,1.44,1.24,3.18,0,6.36,0,9.54,0a10,10,0,0,0,1.11-.2Z"/></g></g></svg>