<svg xmlns="http://www.w3.org/2000/svg" viewBox="0 0 86 41"><defs><style>.cls-1,.cls-3{fill:#fff;}.cls-2{fill:none;stroke:#fff;stroke-miterlimit:10;}.cls-3{font-size:12px;font-family:FontAwesome5Free-Regular, "Font Awesome 5 Free";}</style></defs><title>portfolio</title><g id="Layer_2" data-name="Layer 2"><g id="Layer_1-2" data-name="Layer 1"><path class="cls-1" d="M83.37,1A1.63,1.63,0,0,1,85,2.63V38.37A1.63,1.63,0,0,1,83.37,40H2.63A1.63,1.63,0,0,1,1,38.37V2.63A1.63,1.63,0,0,1,2.63,1H83.37m0-1H2.63A2.63,2.63,0,0,0,0,2.63V38.37A2.63,2.63,0,0,0,2.63,41H83.37A2.63,2.63,0,0,0,86,38.37V2.63A2.63,2.63,0,0,0,83.37,0Z"/><path class="cls-1" d="M42.87,4.5A1.63,1.63,0,0,1,44.5,6.13V25.87a1.63,1.63,0,0,1-1.63,1.63H6.13A1.63,1.63,0,0,1,4.5,25.87V6.13A1.63,1.63,0,0,1,6.13,4.5H42.87m0-1H6.13A2.63,2.63,0,0,0,3.5,6.13V25.87A2.63,2.63,0,0,0,6.13,28.5H42.87a2.63,2.63,0,0,0,2.63-2.63V6.13A2.63,2.63,0,0,0,42.87,3.5Z"/><path class="cls-1" d="M42.87,31.5a1.63,1.63,0,0,1,1.63,1.63v1.74a1.63,1.63,0,0,1-1.63,1.63H6.13A1.63,1.63,0,0,1,4.5,34.87V33.13A1.63,1.63,0,0,1,6.13,31.5H42.87m0-1H6.13A2.63,2.63,0,0,0,3.5,33.13v1.74A2.63,2.63,0,0,0,6.13,37.5H42.87a2.63,2.63,0,0,0,2.63-2.63V33.13a2.63,2.63,0,0,0-2.63-2.63Z"/><path class="cls-1" d="M79.87,4.5A1.63,1.63,0,0,1,81.5,6.13V34.87a1.63,1.63,0,0,1-1.63,1.63H50.13a1.63,1.63,0,0,1-1.63-1.63V6.13A1.63,1.63,0,0,1,50.13,4.5H79.87m0-1H50.13A2.63,2.63,0,0,0,47.5,6.13V34.87a2.63,2.63,0,0,0,2.63,2.63H79.87a2.63,2.63,0,0,0,2.63-2.63V6.13A2.63,2.63,0,0,0,79.87,3.5Z"/><line class="cls-2" x1="48.5" y1="4.5" x2="81.5" y2="36.5"/><line class="cls-2" x1="81.5" y1="4.5" x2="48.5" y2="36.5"/><text class="cls-3" transform="translate(18.38 19.97)"></text></g></g></svg>