<?xml version="1.0" encoding="utf-8"?>
<!-- Generator: Adobe Illustrator 23.0.2, SVG Export Plug-In . SVG Version: 6.00 Build 0)  -->
<svg version="1.1" id="Layer_1" xmlns="http://www.w3.org/2000/svg" xmlns:xlink="http://www.w3.org/1999/xlink" x="0px" y="0px"
	 viewBox="0 0 86 41" style="enable-background:new 0 0 86 41;" xml:space="preserve">
<style type="text/css">
	.st0{fill:#FFFFFF;}
	.st1{fill:none;stroke:#FFFFFF;stroke-miterlimit:10;}
	.st2{enable-background:new    ;}
</style>
<title>portfolio</title>
<g>
	<g id="Layer_1-2">
		<path class="st0" d="M83.4,1C84.3,1,85,1.7,85,2.6v35.7c0,0.9-0.7,1.6-1.6,1.6H2.6C1.7,40,1,39.3,1,38.4l0,0V2.6
			C1,1.7,1.7,1,2.6,1c0,0,0,0,0,0H83.4 M83.4,0H2.6C1.2,0,0,1.2,0,2.6v35.7C0,39.8,1.2,41,2.6,41c0,0,0,0,0,0h80.7
			c1.5,0,2.6-1.2,2.6-2.6V2.6C86,1.2,84.8,0,83.4,0z"/>
		<path class="st0" d="M42.9,4.5c0.9,0,1.6,0.7,1.6,1.6c0,0,0,0,0,0v19.7c0,0.9-0.7,1.6-1.6,1.6l0,0H6.1c-0.9,0-1.6-0.7-1.6-1.6V6.1
			c0-0.9,0.7-1.6,1.6-1.6l0,0H42.9 M42.9,3.5H6.1c-1.5,0-2.6,1.2-2.6,2.6v19.7c0,1.5,1.2,2.6,2.6,2.6h36.7c1.5,0,2.6-1.2,2.6-2.6v0
			V6.1C45.5,4.7,44.3,3.5,42.9,3.5L42.9,3.5z"/>
		<path class="st0" d="M42.9,31.5c0.9,0,1.6,0.7,1.6,1.6c0,0,0,0,0,0v1.7c0,0.9-0.7,1.6-1.6,1.6c0,0,0,0,0,0H6.1
			c-0.9,0-1.6-0.7-1.6-1.6v0v-1.7c0-0.9,0.7-1.6,1.6-1.6c0,0,0,0,0,0H42.9 M42.9,30.5H6.1c-1.5,0-2.6,1.2-2.6,2.6l0,0v1.7
			c0,1.5,1.2,2.6,2.6,2.6h36.7c1.5,0,2.6-1.2,2.6-2.6l0,0v-1.7C45.5,31.7,44.3,30.5,42.9,30.5L42.9,30.5z"/>
		<path class="st0" d="M79.9,4.5c0.9,0,1.6,0.7,1.6,1.6v28.7c0,0.9-0.7,1.6-1.6,1.6H50.1c-0.9,0-1.6-0.7-1.6-1.6c0,0,0,0,0,0V6.1
			c0-0.9,0.7-1.6,1.6-1.6l0,0H79.9 M79.9,3.5H50.1c-1.5,0-2.6,1.2-2.6,2.6c0,0,0,0,0,0v28.7c0,1.5,1.2,2.6,2.6,2.6l0,0h29.7
			c1.5,0,2.6-1.2,2.6-2.6V6.1C82.5,4.7,81.3,3.5,79.9,3.5z"/>
		<line class="st1" x1="48.5" y1="4.5" x2="81.5" y2="36.5"/>
		<line class="st1" x1="81.5" y1="4.5" x2="48.5" y2="36.5"/>
		<g class="st2">
			<path class="st0" d="M29.1,17.7c0.1,0.6-0.1,1.1-0.4,1.6c0,1.3-0.8,2.2-2.6,2.2c-0.2,0-0.4,0-0.5,0c-2.4,0-3.1-0.9-4.2-0.9
				c-0.1,0.3-0.4,0.6-0.7,0.6h-1.5c-0.4,0-0.8-0.3-0.8-0.8v-5.6c0-0.4,0.3-0.8,0.8-0.8h2.3c0.4-0.4,1.1-1.4,1.6-2
				c0.3-0.3,0.2-2.5,1.7-2.5c1.3,0,2.2,0.7,2.2,2.5c0,0.4-0.1,0.8-0.2,1.1h0.9c1.1,0,2,1,2,2c0,0.4-0.1,0.8-0.3,1.2
				C29.4,16.7,29.3,17.2,29.1,17.7z M19.9,19c-0.3,0-0.6,0.3-0.6,0.6s0.3,0.6,0.6,0.6s0.6-0.3,0.6-0.6S20.2,19,19.9,19z M28,15.9
				c0.2,0,0.5-0.4,0.5-0.9s-0.4-0.9-0.9-0.9h-2.4c0-0.9,0.7-1.3,0.7-2.2c0-0.6,0-1.3-1.1-1.3c-0.4,0.4-0.2,1.6-0.9,2.2
				c-0.6,0.6-1.6,2.3-2.2,2.3h-0.3v4.4c1.3,0,2.3,0.9,4,0.9h0.9c0.8,0,1.4-0.4,1.2-1.5c0.4-0.2,0.6-0.9,0.3-1.3
				C28.4,17,28.3,16.3,28,15.9z"/>
		</g>
	</g>
</g>
</svg>
