<svg xmlns="http://www.w3.org/2000/svg" viewBox="0 0 86 49"><defs><style>.cls-1{fill:#fff;}</style></defs><title>trailer</title><g id="Layer_2" data-name="Layer 2"><g id="Layer_1-2" data-name="Layer 1"><path class="cls-1" d="M79.77,5A1.23,1.23,0,0,1,81,6.23V20.77A1.23,1.23,0,0,1,79.77,22H70.23A1.23,1.23,0,0,1,69,20.77V6.23A1.23,1.23,0,0,1,70.23,5h9.54m0-1H70.23A2.23,2.23,0,0,0,68,6.23V20.77A2.23,2.23,0,0,0,70.23,23h9.54A2.23,2.23,0,0,0,82,20.77V6.23A2.23,2.23,0,0,0,79.77,4Z"/><path class="cls-1" d="M39.77,5A1.23,1.23,0,0,1,41,6.23V20.77A1.23,1.23,0,0,1,39.77,22H27.07a1.23,1.23,0,0,1-1.23-1.23V6.23A1.23,1.23,0,0,1,27.07,5h12.7m0-1H27.07a2.23,2.23,0,0,0-2.23,2.23V20.77A2.23,2.23,0,0,0,27.07,23h12.7A2.23,2.23,0,0,0,42,20.77V6.23A2.23,2.23,0,0,0,39.77,4Z"/><path class="cls-1" d="M61.77,43A1.23,1.23,0,0,1,63,44.23v2.54A1.23,1.23,0,0,1,61.77,48H48.07a1.23,1.23,0,0,1-1.23-1.23V44.23A1.23,1.23,0,0,1,48.07,43h13.7m0-1H48.07a2.23,2.23,0,0,0-2.23,2.23v2.54A2.23,2.23,0,0,0,48.07,49h13.7A2.23,2.23,0,0,0,64,46.77V44.23A2.23,2.23,0,0,0,61.77,42Z"/><path class="cls-1" d="M61.77,40A1.23,1.23,0,0,1,63,41.23v2.54A1.23,1.23,0,0,1,61.77,45H48.07a1.23,1.23,0,0,1-1.23-1.23V41.23A1.23,1.23,0,0,1,48.07,40h13.7m0-1H48.07a2.23,2.23,0,0,0-2.23,2.23v2.54A2.23,2.23,0,0,0,48.07,46h13.7A2.23,2.23,0,0,0,64,43.77V41.23A2.23,2.23,0,0,0,61.77,39Z"/><path class="cls-1" d="M18.93,5a1.23,1.23,0,0,1,1.23,1.23V20.77A1.23,1.23,0,0,1,18.93,22H6.23A1.23,1.23,0,0,1,5,20.77V6.23A1.23,1.23,0,0,1,6.23,5h12.7m0-1H6.23A2.23,2.23,0,0,0,4,6.23V20.77A2.23,2.23,0,0,0,6.23,23h12.7a2.23,2.23,0,0,0,2.23-2.23V6.23A2.23,2.23,0,0,0,18.93,4Z"/><path class="cls-1" d="M61.77,5A1.23,1.23,0,0,1,63,6.23V37.77A1.23,1.23,0,0,1,61.77,39H48.23A1.23,1.23,0,0,1,47,37.77V6.23A1.23,1.23,0,0,1,48.23,5H61.77m0-1H48.23A2.23,2.23,0,0,0,46,6.23V37.77A2.23,2.23,0,0,0,48.23,40H61.77A2.23,2.23,0,0,0,64,37.77V6.23A2.23,2.23,0,0,0,61.77,4Z"/><path class="cls-1" d="M60,21a1,1,0,1,0,1,1,1,1,0,0,0-1-1Z"/><path class="cls-1" d="M83.77,1A1.23,1.23,0,0,1,85,2.23V43.77A1.23,1.23,0,0,1,83.77,45H21.94A9,9,0,0,0,4.06,45H2.23A1.23,1.23,0,0,1,1,43.77V2.23A1.23,1.23,0,0,1,2.23,1H83.77m0-1H2.23A2.23,2.23,0,0,0,0,2.23V43.77A2.23,2.23,0,0,0,2.23,46H5a8,8,0,0,1,16,0H83.77A2.23,2.23,0,0,0,86,43.77V2.23A2.23,2.23,0,0,0,83.77,0Z"/></g></g></svg>